<?xml version="1.0" encoding="utf-8"?>
<!-- Generator: Adobe Illustrator 22.1.0, SVG Export Plug-In . SVG Version: 6.00 Build 0)  -->
<svg version="1.1" id="Capa_1" xmlns="http://www.w3.org/2000/svg" xmlns:xlink="http://www.w3.org/1999/xlink" x="0px" y="0px"
	 viewBox="0 0 428 304" style="enable-background:new 0 0 428 304;" xml:space="preserve">
<style type="text/css">
	.st0{fill:#999999;stroke:#999999;stroke-linejoin:round;}
	.st1{fill:none;stroke:#999999;stroke-linecap:round;stroke-miterlimit:6;}
	.st2{fill:#FFFFFF;stroke:#999999;stroke-linecap:round;stroke-miterlimit:6;}
	.st3{fill:#999999;}
	.st4{fill:none;stroke:#999999;stroke-linecap:round;}
	.st5{fill:#FFFFFF;stroke:#999999;stroke-linecap:round;stroke-linejoin:round;stroke-miterlimit:6;}
	.st6{fill:#FFFFFF;stroke:#999999;}
	.st7{fill:#FFFFFF;}
	.st8{clip-path:url(#SVGID_2_);}
	.st9{fill:none;stroke:#999999;}
	.st10{clip-path:url(#SVGID_4_);}
	.st11{clip-path:url(#SVGID_6_);}
	.st12{fill:#999999;stroke:#999999;}
	.st13{clip-path:url(#SVGID_8_);}
	.st14{clip-path:url(#SVGID_10_);}
	.st15{clip-path:url(#SVGID_12_);}
	.st16{clip-path:url(#SVGID_14_);}
	.st17{clip-path:url(#SVGID_16_);}
	.st18{clip-path:url(#SVGID_18_);}
</style>
<path class="st0" d="M210,67.1l5.8-6.8h3.1L210,67.1z"/>
<path class="st0" d="M112.8,67.1l5.8-6.8h3.1L112.8,67.1z"/>
<path class="st0" d="M112.8,139.9l5.8-6.8h3.1L112.8,139.9z"/>
<path class="st0" d="M15.7,67.1l5.8-6.8h3.1L15.7,67.1z"/>
<path class="st0" d="M112.8,139.9l5.8-6.8h3.1L112.8,139.9z"/>
<path class="st1" d="M77.9,67.1h10.6"/>
<path class="st1" d="M50.6,67.1H39.9"/>
<path class="st1" d="M77.9,67.1l-2.3-5.3l-4.6,10.6l-4.6-10.6L62,72.4l-4.6-10.6l-4.6,10.6l-2.3-5.3"/>
<path class="st1" d="M175.1,67.1h10.6"/>
<path class="st1" d="M147.7,67.1h-10.6"/>
<path class="st1" d="M175.1,67.1l-2.3-5.3l-4.6,10.6l-4.6-10.6l-4.6,10.6l-4.6-10.6L150,72.4l-2.3-5.3"/>
<path class="st1" d="M112.8,117.1v10.6"/>
<path class="st1" d="M112.8,89.8V79.2"/>
<path class="st1" d="M112.8,117.1l5.3-2.3l-10.6-4.5l10.6-4.6l-10.6-4.5l10.6-4.5l-10.6-4.5l5.3-2.3"/>
<path class="st1" d="M210,117.1v10.6"/>
<path class="st1" d="M210,89.8V79.2"/>
<path class="st1" d="M210,117.1l5.3-2.3l-10.6-4.5l10.6-4.6l-10.6-4.5l10.6-4.5l-10.6-4.5l5.3-2.3"/>
<path class="st2" d="M27.8,103.5c0-6.7-5.4-12.1-12.1-12.1S3.5,96.8,3.5,103.5c0,6.7,5.4,12.1,12.1,12.1S27.8,110.2,27.8,103.5"/>
<path class="st1" d="M15.7,79.2v12.1"/>
<path class="st1" d="M15.7,127.7v-12.1"/>
<path class="st3" d="M16.1,95.3h-0.8v3.6h-3.5v0.8h3.5v3.6h0.8v-3.6h3.5v-0.8h-3.5V95.3"/>
<path class="st3" d="M11.8,109.3h7.8v-0.8h-7.8V109.3z"/>
<path class="st4" d="M15.7,127.7v12.1"/>
<path class="st4" d="M15.7,67.1v12.1"/>
<path class="st4" d="M112.8,127.7v12.1"/>
<path class="st4" d="M112.8,67.1v12.1"/>
<path class="st4" d="M210,67.1v12.1"/>
<path class="st4" d="M210,127.7v12.1"/>
<path class="st4" d="M15.7,67.1h24.3"/>
<path class="st4" d="M88.5,67.1h48.6"/>
<path class="st4" d="M185.7,67.1H210"/>
<path class="st4" d="M15.7,139.9H210"/>
<path class="st1" d="M112.8,149.6v-9.7"/>
<path class="st5" d="M103.1,149.6l9.7,9.7l9.7-9.7H103.1z"/>
<path class="st6" d="M118.6,119h4.4c1.3,0,2.4,1.1,2.4,2.4v9.2c0,1.3-1.1,2.4-2.4,2.4h-4.4c-1.3,0-2.4-1.1-2.4-2.4v-9.2
	C116.2,120.1,117.3,119,118.6,119z"/>
<path class="st7" d="M21.5,46.2h4.4c1.3,0,2.4,1.1,2.4,2.4v9.2c0,1.3-1.1,2.4-2.4,2.4h-4.4c-1.3,0-2.4-1.1-2.4-2.4v-9.2
	C19.1,47.3,20.1,46.2,21.5,46.2z"/>
<g>
	<defs>
		<rect id="SVGID_1_" x="13.2" y="41" width="21" height="25"/>
	</defs>
	<clipPath id="SVGID_2_">
		<use xlink:href="#SVGID_1_"  style="overflow:visible;"/>
	</clipPath>
	<g class="st8">
		<path class="st9" d="M21.5,46.2h4.4c1.3,0,2.4,1.1,2.4,2.4v9.2c0,1.3-1.1,2.4-2.4,2.4h-4.4c-1.3,0-2.4-1.1-2.4-2.4v-9.2
			C19.1,47.3,20.1,46.2,21.5,46.2z"/>
	</g>
</g>
<path class="st6" d="M118.6,119h4.4c1.3,0,2.4,1.1,2.4,2.4v9.2c0,1.3-1.1,2.4-2.4,2.4h-4.4c-1.3,0-2.4-1.1-2.4-2.4v-9.2
	C116.2,120.1,117.3,119,118.6,119z"/>
<path class="st7" d="M118.6,46.2h4.4c1.3,0,2.4,1.1,2.4,2.4v9.2c0,1.3-1.1,2.4-2.4,2.4h-4.4c-1.3,0-2.4-1.1-2.4-2.4v-9.2
	C116.2,47.3,117.3,46.2,118.6,46.2z"/>
<g>
	<defs>
		<rect id="SVGID_3_" x="110.2" y="41" width="21" height="25"/>
	</defs>
	<clipPath id="SVGID_4_">
		<use xlink:href="#SVGID_3_"  style="overflow:visible;"/>
	</clipPath>
	<g class="st10">
		<path class="st9" d="M118.6,46.2h4.4c1.3,0,2.4,1.1,2.4,2.4v9.2c0,1.3-1.1,2.4-2.4,2.4h-4.4c-1.3,0-2.4-1.1-2.4-2.4v-9.2
			C116.2,47.3,117.3,46.2,118.6,46.2z"/>
	</g>
</g>
<path class="st7" d="M215.8,46.2h4.4c1.3,0,2.4,1.1,2.4,2.4v9.2c0,1.3-1.1,2.4-2.4,2.4h-4.4c-1.3,0-2.4-1.1-2.4-2.4v-9.2
	C213.4,47.3,214.5,46.2,215.8,46.2z"/>
<g>
	<defs>
		<rect id="SVGID_5_" x="207.2" y="41" width="21" height="25"/>
	</defs>
	<clipPath id="SVGID_6_">
		<use xlink:href="#SVGID_5_"  style="overflow:visible;"/>
	</clipPath>
	<g class="st11">
		<path class="st9" d="M215.8,46.2h4.4c1.3,0,2.4,1.1,2.4,2.4v9.2c0,1.3-1.1,2.4-2.4,2.4h-4.4c-1.3,0-2.4-1.1-2.4-2.4v-9.2
			C213.4,47.3,214.5,46.2,215.8,46.2z"/>
	</g>
</g>
<path class="st12" d="M17.1,67.1c0,0.8-0.7,1.5-1.5,1.5s-1.5-0.7-1.5-1.5c0-0.8,0.7-1.5,1.5-1.5S17.1,66.3,17.1,67.1z"/>
<path class="st12" d="M114.3,139.9c0,0.8-0.6,1.5-1.5,1.5c-0.8,0-1.5-0.7-1.5-1.5c0-0.8,0.7-1.5,1.5-1.5
	C113.6,138.4,114.3,139.1,114.3,139.9z"/>
<path class="st12" d="M114.3,67.1c0,0.8-0.6,1.5-1.5,1.5c-0.8,0-1.5-0.7-1.5-1.5c0-0.8,0.7-1.5,1.5-1.5
	C113.6,65.6,114.3,66.3,114.3,67.1z"/>
<path class="st12" d="M211.4,67.1c0,0.8-0.7,1.5-1.5,1.5c-0.8,0-1.5-0.7-1.5-1.5c0-0.8,0.7-1.5,1.5-1.5
	C210.8,65.6,211.4,66.3,211.4,67.1z"/>
<path class="st1" d="M310.2,10.4h10.6"/>
<path class="st1" d="M282.9,10.4h-10.6"/>
<g>
	<defs>
		<rect id="SVGID_7_" x="274.2" y="1" width="45" height="23"/>
	</defs>
	<clipPath id="SVGID_8_">
		<use xlink:href="#SVGID_7_"  style="overflow:visible;"/>
	</clipPath>
	<g class="st13">
		<path class="st1" d="M310.2,10.4L308,5.1l-4.6,10.6l-4.6-10.6l-4.6,10.6l-4.6-10.6l-4.6,10.6l-2.3-5.3"/>
	</g>
</g>
<path class="st1" d="M383.1,10.4h10.6"/>
<path class="st1" d="M355.8,10.4h-10.6"/>
<g>
	<defs>
		<rect id="SVGID_9_" x="347.2" y="1" width="45" height="23"/>
	</defs>
	<clipPath id="SVGID_10_">
		<use xlink:href="#SVGID_9_"  style="overflow:visible;"/>
	</clipPath>
	<g class="st14">
		<path class="st1" d="M383.1,10.4l-2.3-5.3l-4.6,10.6l-4.6-10.6l-4.6,10.6l-4.6-10.6l-4.6,10.6l-2.3-5.3"/>
	</g>
</g>
<path class="st1" d="M333,72.6v10.6"/>
<path class="st1" d="M333,45.3V34.7"/>
<path class="st1" d="M333,72.6l5.3-2.3l-10.6-4.5l10.6-4.6l-10.6-4.5l10.6-4.5l-10.6-4.5l5.3-2.3"/>
<path class="st1" d="M418,72.6v10.6"/>
<path class="st1" d="M418,45.3V34.7"/>
<path class="st1" d="M418,72.6l5.3-2.3l-10.6-4.5l10.6-4.6l-10.6-4.5l10.6-4.5l-10.6-4.5l5.3-2.3"/>
<path class="st1" d="M418,145.3v10.6"/>
<path class="st1" d="M418,118v-10.6"/>
<path class="st1" d="M418,145.3l5.3-2.3l-10.6-4.5l10.6-4.5l-10.6-4.5l10.6-4.5l-10.6-4.6l5.3-2.3"/>
<path class="st4" d="M345.2,107.4h-24.3"/>
<path class="st4" d="M333,107.2V95.3"/>
<path class="st4" d="M339.1,112.3h-12.1"/>
<path class="st4" d="M339.1,131.7h-12.1"/>
<path class="st4" d="M345.2,126.8h-24.3"/>
<path class="st4" d="M333,131.9v11.9"/>
<path class="st4" d="M339.1,122h-12.1"/>
<path class="st4" d="M345.2,117.1h-24.3"/>
<path class="st3" d="M326.8,100.1h-0.6v2.6h-2.6v0.6h2.6v2.6h0.6v-2.6h2.6v-0.6h-2.6V100.1"/>
<path class="st4" d="M260.1,83.2h-24.3"/>
<path class="st4" d="M248,82.9V71"/>
<path class="st4" d="M254.1,88h-12.1"/>
<path class="st4" d="M254.1,107.4h-12.1"/>
<path class="st4" d="M260.1,102.6h-24.3"/>
<path class="st4" d="M248,107.7v11.9"/>
<path class="st4" d="M254.1,97.7h-12.1"/>
<path class="st4" d="M260.1,92.9h-24.3"/>
<path class="st3" d="M241.8,75.9h-0.6v2.6h-2.6v0.6h2.6v2.6h0.6v-2.6h2.6v-0.6h-2.6V75.9"/>
<path class="st4" d="M248,10.4V71"/>
<path class="st4" d="M248,10.4h24.3"/>
<path class="st4" d="M320.9,10.4h24.3"/>
<path class="st4" d="M333,10.4v24.3"/>
<path class="st4" d="M248,119.5v36.4"/>
<path class="st4" d="M248,155.9H418"/>
<path class="st4" d="M418,83.2v24.3"/>
<path class="st4" d="M418,10.4v24.3"/>
<path class="st4" d="M393.7,10.4H418"/>
<path class="st4" d="M333,143.8v12.1"/>
<path class="st4" d="M333,83.2v12.1"/>
<path class="st12" d="M334.5,10.4c0,0.8-0.7,1.5-1.5,1.5c-0.8,0-1.5-0.7-1.5-1.5c0-0.8,0.7-1.5,1.5-1.5
	C333.8,8.9,334.5,9.6,334.5,10.4z"/>
<path class="st12" d="M334.5,155.9c0,0.8-0.7,1.5-1.5,1.5c-0.8,0-1.5-0.7-1.5-1.5c0-0.8,0.7-1.5,1.5-1.5
	C333.8,154.5,334.5,155.1,334.5,155.9z"/>
<path class="st4" d="M127.2,236.4h-20.6"/>
<path class="st4" d="M116.9,236.2v-10.1"/>
<path class="st4" d="M122.1,240.5h-10.3"/>
<path class="st4" d="M122.1,257h-10.3"/>
<path class="st4" d="M127.2,252.8h-20.6"/>
<path class="st4" d="M116.9,257.2v10.1"/>
<path class="st4" d="M122.1,248.7h-10.3"/>
<path class="st4" d="M127.2,244.6h-20.6"/>
<path class="st3" d="M111.7,230.2h-0.5v2.2h-2.2v0.5h2.2v2.2h0.5V233h2.2v-0.5h-2.2V230.2"/>
<path class="st4" d="M189,195.3h-20.6"/>
<path class="st4" d="M178.7,195.1V185"/>
<path class="st4" d="M183.9,199.4h-10.3"/>
<path class="st4" d="M183.9,215.8h-10.3"/>
<path class="st4" d="M189,211.7h-20.6"/>
<path class="st4" d="M178.7,216v10.1"/>
<path class="st4" d="M183.9,207.6h-10.3"/>
<path class="st4" d="M189,203.5h-20.6"/>
<path class="st3" d="M173.5,189.1h-0.5v2.2h-2.2v0.5h2.2v2.2h0.5v-2.2h2.2v-0.5h-2.2V189.1"/>
<path class="st4" d="M250.8,195.3h-20.6"/>
<path class="st4" d="M240.5,195.1V185"/>
<path class="st4" d="M245.7,199.4h-10.3"/>
<path class="st4" d="M245.7,215.8h-10.3"/>
<path class="st4" d="M250.8,211.7h-20.6"/>
<path class="st4" d="M240.5,216v10.1"/>
<path class="st4" d="M245.7,207.6h-10.3"/>
<path class="st4" d="M250.8,203.5h-20.6"/>
<path class="st3" d="M235.2,189.1h-0.5v2.2h-2.2v0.5h2.2v2.2h0.5v-2.2h2.2v-0.5h-2.2V189.1"/>
<path class="st4" d="M312.6,195.3H292"/>
<path class="st4" d="M302.3,195.1V185"/>
<path class="st4" d="M307.5,199.4h-10.3"/>
<path class="st4" d="M307.5,215.8h-10.3"/>
<path class="st4" d="M312.6,211.7H292"/>
<path class="st4" d="M302.3,216v10.1"/>
<path class="st4" d="M307.5,207.6h-10.3"/>
<path class="st4" d="M312.6,203.5H292"/>
<path class="st3" d="M297,189.1h-0.5v2.2h-2.2v0.5h2.2v2.2h0.5v-2.2h2.2v-0.5H297V189.1"/>
<path class="st1" d="M178.7,266v-9"/>
<path class="st1" d="M178.7,289.1v9"/>
<path class="st1" d="M178.7,266l-4.5,1.9l9,3.9l-9,3.9l9,3.9l-9,3.9l9,3.9l-4.5,1.9"/>
<path class="st1" d="M240.5,266v-9"/>
<path class="st1" d="M240.5,289.1v9"/>
<path class="st1" d="M240.5,266l-4.5,1.9l9,3.9l-9,3.9l9,3.9l-9,3.9l9,3.9l-4.5,1.9"/>
<path class="st1" d="M302.3,266v-9"/>
<path class="st1" d="M302.3,289.1v9"/>
<path class="st1" d="M302.3,266l-4.5,1.9l9,3.9l-9,3.9l9,3.9l-9,3.9l9,3.9l-4.5,1.9"/>
<path class="st4" d="M116.9,185v41.1"/>
<path class="st4" d="M116.9,185h185.4"/>
<path class="st4" d="M116.9,267.2v30.8"/>
<path class="st4" d="M116.9,298.1h185.4"/>
<path class="st4" d="M302.3,226.1V257"/>
<path class="st4" d="M178.7,226.1V257"/>
<path class="st4" d="M240.5,226.1V257"/>
<path class="st3" d="M179.9,185c0,0.7-0.6,1.2-1.2,1.2c-0.7,0-1.2-0.6-1.2-1.2c0-0.7,0.6-1.2,1.2-1.2
	C179.4,183.8,179.9,184.3,179.9,185z"/>
<g>
	<defs>
		<rect id="SVGID_11_" x="174.2" y="183" width="9" height="6"/>
	</defs>
	<clipPath id="SVGID_12_">
		<use xlink:href="#SVGID_11_"  style="overflow:visible;"/>
	</clipPath>
	<g class="st15">
		<path class="st9" d="M179.9,185c0,0.7-0.6,1.2-1.2,1.2c-0.7,0-1.2-0.6-1.2-1.2c0-0.7,0.6-1.2,1.2-1.2
			C179.4,183.8,179.9,184.3,179.9,185z"/>
	</g>
</g>
<path class="st3" d="M241.7,185c0,0.7-0.6,1.2-1.2,1.2s-1.2-0.6-1.2-1.2c0-0.7,0.6-1.2,1.2-1.2S241.7,184.3,241.7,185z"/>
<g>
	<defs>
		<rect id="SVGID_13_" x="236.2" y="183" width="8" height="6"/>
	</defs>
	<clipPath id="SVGID_14_">
		<use xlink:href="#SVGID_13_"  style="overflow:visible;"/>
	</clipPath>
	<g class="st16">
		<path class="st9" d="M241.7,185c0,0.7-0.6,1.2-1.2,1.2c-0.7,0-1.2-0.6-1.2-1.2c0-0.7,0.6-1.2,1.2-1.2
			C241.2,183.8,241.7,184.3,241.7,185z"/>
	</g>
</g>
<path class="st3" d="M179.9,298.1c0,0.7-0.6,1.2-1.2,1.2c-0.7,0-1.2-0.6-1.2-1.2c0-0.7,0.6-1.2,1.2-1.2
	C179.4,296.9,179.9,297.4,179.9,298.1z"/>
<g>
	<defs>
		<rect id="SVGID_15_" x="174.2" y="294" width="9" height="7"/>
	</defs>
	<clipPath id="SVGID_16_">
		<use xlink:href="#SVGID_15_"  style="overflow:visible;"/>
	</clipPath>
	<g class="st17">
		<path class="st9" d="M179.9,298.1c0,0.7-0.6,1.2-1.2,1.2c-0.7,0-1.2-0.6-1.2-1.2c0-0.7,0.6-1.2,1.2-1.2
			C179.4,296.9,179.9,297.4,179.9,298.1z"/>
	</g>
</g>
<path class="st3" d="M241.7,298.1c0,0.7-0.6,1.2-1.2,1.2s-1.2-0.6-1.2-1.2c0-0.7,0.6-1.2,1.2-1.2S241.7,297.4,241.7,298.1z"/>
<g>
	<defs>
		<rect id="SVGID_17_" x="236.2" y="294" width="8" height="7"/>
	</defs>
	<clipPath id="SVGID_18_">
		<use xlink:href="#SVGID_17_"  style="overflow:visible;"/>
	</clipPath>
	<g class="st18">
		<path class="st9" d="M241.7,298.1c0,0.7-0.6,1.2-1.2,1.2c-0.7,0-1.2-0.6-1.2-1.2c0-0.7,0.6-1.2,1.2-1.2
			C241.2,296.9,241.7,297.4,241.7,298.1z"/>
	</g>
</g>
</svg>
